Naruto_Shippuuden_265 Eng Subbed BZINGAZ in mkv format 60 mb size.            
                                                               
                              Download**Enjoy**Seed


Naruto Shippuuden 265 mkv 60 mb Bzingaz.mkv

Format                           : Matroska
File size                        : 59.6 MiB
Duration                         : 23mn 9s
Overall bit rate                 : 360 Kbps


Video
ID                               : 2
Format                           : AVC
Format/Info                      : Advanced Video Codec
Format profile                   : High@L3.0
Format settings, CABAC           : Yes
Format settings, ReFrames        : 4 frames
Muxing mode                      : Header stripping
Codec ID                         : V_MPEG4/ISO/AVC
Duration                         : 23mn 9s
Bit rate                         : 299 Kbps
Width                            : 848 pixels
Height                           : 480 pixels
Display aspect ratio             : 16:9
Frame rate                       : 23.810 fps
Color space                      : YUV
Chroma subsampling               : 4:2:0
Bit depth                        : 8 bits
Scan type                        : Progressive
Bits/(Pixel*Frame)               : 0.031
Stream size                      : 47.8 MiB (80%)

Audio
ID                               : 3
Format                           : Vorbis
Format settings, Floor           : 1
Codec ID                         : A_VORBIS
Duration                         : 23mn 9s
Bit rate mode                    : Constant
Bit rate                         : 64.0 Kbps
Channel(s)                       : 2 channels
Sampling rate                    : 44.1 KHz
Compression mode                 : Lossy
Stream size                      : 10.6 MiB (18%)
Writing library                  : aoTuV 20110424 (UTC 2011-04-24)

Text
ID                               : 1
Format                           : ASS
Codec ID                         : S_TEXT/ASS
Codec ID/Info                    : Advanced Sub Station Alpha
Compression mode                 : Lossless
